<?xml version="1.0" encoding="utf-8"?>
<!-- Generator: Adobe Illustrator 24.1.3, SVG Export Plug-In . SVG Version: 6.00 Build 0)  -->
<svg version="1.1" id="Layer_1" xmlns="http://www.w3.org/2000/svg" xmlns:xlink="http://www.w3.org/1999/xlink" x="0px" y="0px"
	 viewBox="0 0 140 280" style="enable-background:new 0 0 140 280;" xml:space="preserve">
<style type="text/css">
	.st0{fill:#000000;}
</style>
<path class="st0" d="M70,45.92c-19.33,0-36.04,11.18-44.04,27.41c-3.22,6.54-5.04,13.89-5.04,21.67c0,7.78,1.82,15.13,5.04,21.67
	c8,16.24,24.71,27.41,44.04,27.41c19.33,0,36.04-11.18,44.04-27.41c3.22-6.54,5.04-13.89,5.04-21.67c0-7.78-1.82-15.13-5.04-21.67
	C106.04,57.1,89.33,45.92,70,45.92z M108.36,116.67c-6.8,11.99-19.05,20.5-33.36,22.12c-1.64,0.19-3.31,0.29-5,0.29
	c-1.69,0-3.36-0.11-5-0.29c-14.32-1.62-26.57-10.13-33.37-22.12c-3.63-6.4-5.72-13.79-5.72-21.67c0-7.87,2.08-15.26,5.72-21.67
	c6.8-11.99,19.05-20.5,33.37-22.12c1.64-0.19,3.31-0.29,5-0.29c1.69,0,3.36,0.11,5,0.29c14.31,1.62,26.56,10.13,33.36,22.12
	c3.63,6.4,5.72,13.79,5.72,21.67C114.08,102.87,111.99,110.26,108.36,116.67z M130,0H10C4.48,0,0,4.48,0,10v260
	c0,5.52,4.48,10,10,10h120c5.52,0,10-4.48,10-10V10C140,4.48,135.52,0,130,0z M130,270H10V10h120V270z M62.5,192.45v15h15v-15H62.5z
	 M25,35l90,0c2.76,0,5-2.24,5-5s-2.24-5-5-5l-90,0c-2.76,0-5,2.24-5,5S22.24,35,25,35z M25,165h90c2.76,0,5-2.24,5-5s-2.24-5-5-5H25
	c-2.76,0-5,2.24-5,5S22.24,165,25,165z M90,224.91H50c-2.76,0-5,2.24-5,5s2.24,5,5,5h40c2.76,0,5-2.24,5-5S92.76,224.91,90,224.91z
	 M90,244.91l-40,0c-2.76,0-5,2.24-5,5s2.24,5,5,5l40,0c2.76,0,5-2.24,5-5S92.76,244.91,90,244.91z M61.47,72
	c-0.11-0.01-0.21-0.03-0.32-0.03s-0.22,0.02-0.32,0.03c-0.83,0.11-1.53,0.62-1.89,1.33c-0.18,0.34-0.28,0.72-0.28,1.13v41.06
	c0,0.41,0.11,0.79,0.28,1.13c0.37,0.72,1.06,1.23,1.89,1.33c0.11,0.01,0.21,0.03,0.32,0.03s0.22-0.02,0.32-0.03
	c0.83-0.11,1.53-0.62,1.89-1.33c0.18-0.34,0.28-0.72,0.28-1.13V74.47c0-0.41-0.11-0.79-0.28-1.13C63,72.62,62.31,72.11,61.47,72z
	 M79.16,72c-0.11-0.01-0.21-0.03-0.32-0.03s-0.22,0.02-0.32,0.03c-0.83,0.11-1.53,0.62-1.89,1.33c-0.18,0.34-0.28,0.72-0.28,1.13
	v41.06c0,0.41,0.11,0.79,0.28,1.13c0.37,0.72,1.06,1.23,1.89,1.33c0.11,0.01,0.21,0.03,0.32,0.03s0.22-0.02,0.32-0.03
	c0.83-0.11,1.53-0.62,1.89-1.33c0.18-0.34,0.28-0.72,0.28-1.13V74.47c0-0.41-0.11-0.79-0.28-1.13C80.69,72.62,80,72.11,79.16,72z"/>
</svg>
