<?xml version="1.0" encoding="utf-8"?>
<!-- Generator: Adobe Illustrator 24.1.3, SVG Export Plug-In . SVG Version: 6.00 Build 0)  -->
<svg version="1.1" id="Layer_1" xmlns="http://www.w3.org/2000/svg" xmlns:xlink="http://www.w3.org/1999/xlink" x="0px" y="0px"
	 viewBox="0 0 140 280" style="enable-background:new 140 0 280 280;" xml:space="preserve">
<style type="text/css">
	.st0{fill:#000000;}
</style>
<path class="st0" d="M130,0H10C4.48,0,0,4.48,0,10v260c0,5.52,4.48,10,10,10h120c5.52,0,10-4.48,10-10V10C140,4.48,135.52,0,130,0z
	 M130,270H10V10h120V270z M62.5,192.45v15h15v-15H62.5z M25,35h90c2.76,0,5-2.24,5-5s-2.24-5-5-5H25c-2.76,0-5,2.24-5,5
	S22.24,35,25,35z M25,165h90c2.76,0,5-2.24,5-5s-2.24-5-5-5H25c-2.76,0-5,2.24-5,5S22.24,165,25,165z M90,224.91H50
	c-2.76,0-5,2.24-5,5s2.24,5,5,5h40c2.76,0,5-2.24,5-5S92.76,224.91,90,224.91z M90,244.91H50c-2.76,0-5,2.24-5,5s2.24,5,5,5h40
	c2.76,0,5-2.24,5-5S92.76,244.91,90,244.91z M70,49.75c-24.81,0-45,20.19-45,45s20.19,45,45,45c24.81,0,45-20.19,45-45
	S94.81,49.75,70,49.75z M70,134.75c-22.06,0-40-17.94-40-40s17.94-40,40-40c22.06,0,40,17.94,40,40S92.06,134.75,70,134.75z
	 M67.54,95.1c0.01,0.08,0.02,0.15,0.04,0.23c0.02,0.08,0.05,0.15,0.07,0.23c0.03,0.08,0.05,0.15,0.09,0.23
	c0.03,0.07,0.07,0.14,0.11,0.21c0.04,0.07,0.08,0.14,0.13,0.2c0.05,0.07,0.1,0.13,0.15,0.19c0.05,0.06,0.11,0.12,0.16,0.18
	c0.06,0.05,0.12,0.1,0.18,0.15c0.07,0.06,0.14,0.11,0.22,0.16c0.02,0.01,0.04,0.03,0.07,0.05l16.1,9.29
	c0.39,0.23,0.82,0.34,1.25,0.34c0.86,0,1.7-0.45,2.17-1.25c0.69-1.2,0.28-2.72-0.92-3.42L72.5,93.31V59.83c0-1.38-1.12-2.5-2.5-2.5
	s-2.5,1.12-2.5,2.5v34.93c0,0.03,0.01,0.05,0.01,0.08C67.51,94.92,67.52,95.01,67.54,95.1z M88.71,62.34
	c-1.19-0.69-2.72-0.28-3.42,0.92l-2.73,4.73c-0.69,1.2-0.28,2.72,0.92,3.42c0.39,0.23,0.82,0.34,1.25,0.34
	c0.86,0,1.7-0.45,2.17-1.25l2.73-4.73C90.32,64.56,89.91,63.03,88.71,62.34z M93.35,81.27c0.46,0.8,1.3,1.25,2.17,1.25
	c0.42,0,0.85-0.11,1.25-0.34l4.73-2.73c1.2-0.69,1.61-2.22,0.92-3.42c-0.69-1.2-2.22-1.6-3.42-0.92l-4.73,2.73
	C93.07,78.55,92.66,80.07,93.35,81.27z M96.96,94.75c0,1.38,1.12,2.5,2.5,2.5h5.46c1.38,0,2.5-1.12,2.5-2.5s-1.12-2.5-2.5-2.5h-5.46
	C98.08,92.25,96.96,93.37,96.96,94.75z M101.5,110.05l-4.73-2.73c-1.19-0.69-2.72-0.28-3.42,0.92c-0.69,1.2-0.28,2.72,0.92,3.42
	l4.73,2.73c0.39,0.23,0.82,0.34,1.25,0.34c0.86,0,1.7-0.45,2.17-1.25C103.1,112.27,102.69,110.74,101.5,110.05z M86.9,119.02
	c-0.69-1.2-2.22-1.6-3.42-0.92c-1.2,0.69-1.61,2.22-0.92,3.42l2.73,4.73c0.46,0.8,1.3,1.25,2.17,1.25c0.42,0,0.85-0.11,1.25-0.34
	c1.2-0.69,1.61-2.22,0.92-3.42L86.9,119.02z M70,121.72c-1.38,0-2.5,1.12-2.5,2.5v5.46c0,1.38,1.12,2.5,2.5,2.5s2.5-1.12,2.5-2.5
	v-5.46C72.5,122.84,71.38,121.72,70,121.72z M56.52,118.11c-1.19-0.69-2.72-0.28-3.42,0.92l-2.73,4.73
	c-0.69,1.2-0.28,2.72,0.92,3.42c0.39,0.23,0.82,0.34,1.25,0.34c0.86,0,1.7-0.45,2.17-1.25l2.73-4.73
	C58.12,120.32,57.71,118.8,56.52,118.11z M43.23,107.32l-4.73,2.73c-1.2,0.69-1.61,2.22-0.92,3.42c0.46,0.8,1.3,1.25,2.17,1.25
	c0.42,0,0.85-0.11,1.25-0.34l4.73-2.73c1.2-0.69,1.61-2.22,0.92-3.42C45.96,107.04,44.43,106.63,43.23,107.32z M43.03,94.75
	c0-1.38-1.12-2.5-2.5-2.5h-5.46c-1.38,0-2.5,1.12-2.5,2.5s1.12,2.5,2.5,2.5h5.46C41.92,97.25,43.03,96.13,43.03,94.75z M45.73,77.86
	L41,75.12c-1.19-0.69-2.72-0.28-3.42,0.92s-0.28,2.72,0.92,3.42l4.73,2.73c0.39,0.23,0.82,0.34,1.25,0.34c0.86,0,1.7-0.45,2.17-1.25
	C47.34,80.07,46.93,78.55,45.73,77.86z M54.7,63.25c-0.69-1.2-2.22-1.61-3.42-0.92c-1.2,0.69-1.61,2.22-0.92,3.42l2.73,4.73
	c0.46,0.8,1.3,1.25,2.17,1.25c0.42,0,0.85-0.11,1.25-0.34c1.2-0.69,1.61-2.22,0.92-3.42L54.7,63.25z"/>
</svg>
