<?xml version="1.0" encoding="utf-8"?>
<!-- Generator: Adobe Illustrator 24.1.3, SVG Export Plug-In . SVG Version: 6.00 Build 0)  -->
<svg version="1.1" id="Layer_1" xmlns="http://www.w3.org/2000/svg" xmlns:xlink="http://www.w3.org/1999/xlink" x="0px" y="0px"
	 viewBox="0 0 140 280" style="enable-background:new 0 0 140 280;" xml:space="preserve">
<style type="text/css">
	.st0{fill:#000000;}
</style>
<path class="st0" d="M130,0H10C4.48,0,0,4.48,0,10v260c0,5.52,4.48,10,10,10h120c5.52,0,10-4.48,10-10V10C140,4.48,135.52,0,130,0z
	 M130,270H10V10h120V270z M62.5,192.45v15h15v-15H62.5z M25,35h90c2.76,0,5-2.24,5-5s-2.24-5-5-5H25c-2.76,0-5,2.24-5,5
	S22.24,35,25,35z M25,165h90c2.76,0,5-2.24,5-5s-2.24-5-5-5H25c-2.76,0-5,2.24-5,5S22.24,165,25,165z M90,224.91H50
	c-2.76,0-5,2.24-5,5s2.24,5,5,5h40c2.76,0,5-2.24,5-5S92.76,224.91,90,224.91z M90,244.91H50c-2.76,0-5,2.24-5,5s2.24,5,5,5h40
	c2.76,0,5-2.24,5-5S92.76,244.91,90,244.91z M32.5,63.02v63.95c0,12.29,16.47,21.92,37.5,21.92s37.5-9.63,37.5-21.92V63.02
	c0-12.29-16.47-21.92-37.5-21.92S32.5,50.73,32.5,63.02z M102.5,126.98c0,9.17-14.88,16.92-32.5,16.92s-32.5-7.75-32.5-16.92v-10.23
	c6.42,6.53,18.44,10.84,32.5,10.84c14.06,0,26.08-4.31,32.5-10.84V126.98z M102.5,105.66c0,9.17-14.88,16.92-32.5,16.92
	s-32.5-7.75-32.5-16.92V95.43c6.42,6.53,18.44,10.84,32.5,10.84c14.06,0,26.08-4.31,32.5-10.84V105.66z M102.5,84.34
	c0,9.17-14.88,16.92-32.5,16.92s-32.5-7.75-32.5-16.92V74.11c6.42,6.53,18.44,10.84,32.5,10.84c14.06,0,26.08-4.31,32.5-10.84V84.34
	z M102.13,60.52c0.24,0.82,0.37,1.65,0.37,2.5s-0.13,1.68-0.37,2.5C99.72,73.56,85.99,79.95,70,79.95s-29.73-6.38-32.13-14.42
	c-0.24-0.82-0.37-1.65-0.37-2.5s0.13-1.68,0.37-2.5C40.27,52.48,54.01,46.1,70,46.1S99.72,52.48,102.13,60.52z"/>
</svg>
