<?xml version="1.0" encoding="utf-8"?>
<!-- Generator: Adobe Illustrator 24.1.3, SVG Export Plug-In . SVG Version: 6.00 Build 0)  -->
<svg version="1.1" id="Layer_1" xmlns="http://www.w3.org/2000/svg" xmlns:xlink="http://www.w3.org/1999/xlink" x="0px" y="0px"
	 viewBox="0 0 140 280" style="enable-background:new 0 0 140 280;" xml:space="preserve">
<style type="text/css">
	.st0{fill:#000000;}
</style>
<path class="st0" d="M130,0H10C4.48,0,0,4.48,0,10v260c0,5.52,4.48,10,10,10h120c5.52,0,10-4.48,10-10V10C140,4.48,135.52,0,130,0z
	 M130,270H10V10h120V270z M62.5,192.45v15h15v-15H62.5z M25,35l90,0c2.76,0,5-2.24,5-5s-2.24-5-5-5l-90,0c-2.76,0-5,2.24-5,5
	S22.24,35,25,35z M25,165h90c2.76,0,5-2.24,5-5s-2.24-5-5-5H25c-2.76,0-5,2.24-5,5S22.24,165,25,165z M90,224.91H50
	c-2.76,0-5,2.24-5,5s2.24,5,5,5h40c2.76,0,5-2.24,5-5S92.76,224.91,90,224.91z M90,244.91l-40,0c-2.76,0-5,2.24-5,5s2.24,5,5,5l40,0
	c2.76,0,5-2.24,5-5S92.76,244.91,90,244.91z M70,45.92c-27.11,0-49.08,21.97-49.08,49.08S42.89,144.08,70,144.08
	c27.11,0,49.08-21.97,49.08-49.08S97.1,45.92,70,45.92z M70,139.08c-24.31,0-44.08-19.77-44.08-44.08S45.69,50.92,70,50.92
	c24.31,0,44.08,19.77,44.08,44.08S94.3,139.08,70,139.08z M48.43,75.55c0.02,0.08,0.04,0.17,0.08,0.25
	c0.04,0.09,0.08,0.16,0.13,0.25c0.03,0.06,0.06,0.13,0.1,0.18c0.09,0.14,0.2,0.27,0.31,0.38l8.1,8.1c0.49,0.49,1.13,0.73,1.77,0.73
	s1.28-0.24,1.77-0.73c0.98-0.98,0.98-2.56,0-3.54l-3.83-3.83h29.64c1.38,0,2.5-1.12,2.5-2.5s-1.12-2.5-2.5-2.5H56.85l3.83-3.83
	c0.98-0.98,0.98-2.56,0-3.54c-0.98-0.98-2.56-0.98-3.54,0l-8.1,8.1c-0.12,0.12-0.22,0.25-0.31,0.38c-0.04,0.06-0.07,0.12-0.1,0.18
	c-0.05,0.08-0.09,0.16-0.13,0.25c-0.03,0.08-0.05,0.17-0.08,0.25c-0.02,0.07-0.05,0.14-0.06,0.22c-0.06,0.32-0.06,0.66,0,0.98
	C48.38,75.41,48.41,75.48,48.43,75.55z M90.42,85.13c-0.98,0.98-0.98,2.56,0,3.54l3.83,3.83H39.71c-1.38,0-2.5,1.12-2.5,2.5
	s1.12,2.5,2.5,2.5h54.53l-3.83,3.83c-0.98,0.98-0.98,2.56,0,3.54c0.49,0.49,1.13,0.73,1.77,0.73s1.28-0.24,1.77-0.73l8.1-8.1
	c0.12-0.12,0.22-0.25,0.31-0.38c0.04-0.06,0.07-0.12,0.1-0.18c0.05-0.08,0.09-0.16,0.13-0.25c0-0.01,0.01-0.01,0.01-0.01
	c0.03-0.08,0.05-0.16,0.07-0.23c0.02-0.07,0.05-0.14,0.06-0.22c0.03-0.16,0.05-0.33,0.05-0.49c0-0.16-0.02-0.33-0.05-0.49
	c-0.01-0.07-0.04-0.14-0.06-0.22c-0.02-0.08-0.04-0.17-0.08-0.25c-0.03-0.08-0.08-0.16-0.13-0.24c-0.03-0.06-0.06-0.13-0.1-0.19
	c-0.09-0.14-0.2-0.27-0.31-0.38c0,0,0,0,0,0l-8.1-8.1C92.98,84.16,91.39,84.16,90.42,85.13z M86.49,112.65H56.85l3.83-3.83
	c0.98-0.98,0.98-2.56,0-3.54c-0.98-0.98-2.56-0.98-3.54,0l-8.1,8.1c-0.12,0.12-0.22,0.25-0.31,0.38c-0.04,0.06-0.07,0.12-0.1,0.18
	c-0.05,0.08-0.09,0.16-0.13,0.25c-0.03,0.08-0.05,0.17-0.08,0.25c-0.02,0.07-0.05,0.14-0.06,0.22c-0.06,0.32-0.06,0.66,0,0.98
	c0.01,0.07,0.04,0.14,0.06,0.22c0.02,0.08,0.04,0.17,0.08,0.25c0.04,0.09,0.08,0.16,0.13,0.25c0.03,0.06,0.06,0.13,0.1,0.18
	c0.09,0.14,0.2,0.27,0.31,0.38l8.1,8.1c0.49,0.49,1.13,0.73,1.77,0.73s1.28-0.24,1.77-0.73c0.98-0.98,0.98-2.56,0-3.54l-3.83-3.83
	h29.64c1.38,0,2.5-1.12,2.5-2.5S87.88,112.65,86.49,112.65z"/>
</svg>
