<?xml version="1.0" encoding="utf-8"?>
<!-- Generator: Adobe Illustrator 24.1.3, SVG Export Plug-In . SVG Version: 6.00 Build 0)  -->
<svg version="1.1" id="Layer_1" xmlns="http://www.w3.org/2000/svg" xmlns:xlink="http://www.w3.org/1999/xlink" x="0px" y="0px"
	 viewBox="0 0 220 190" style="enable-background:new 0 0 220 190;" xml:space="preserve">
<style type="text/css">
	.st0{fill:#000000;}
</style>
<g>
	<path class="st0" d="M210,0H10C4.48,0,0,4.48,0,10v140c0,5.52,4.48,10,10,10h84.8v20h-25v10h25h30h25v-10h-25v-20H210
		c5.52,0,10-4.48,10-10V10C220,4.47,215.52,0,210,0z M10,10h200v140h-85.2h-30H10V10z"/>
	<path class="st0" d="M169.66,80c0-32.9-26.77-59.67-59.67-59.67S50.32,47.1,50.32,80c0,32.9,26.77,59.67,59.67,59.67
		S169.66,112.9,169.66,80z M63.3,63.07h11.07c-0.68,3.82-1.13,7.81-1.33,11.93H60.58C61,70.85,61.93,66.85,63.3,63.07z
		 M156.69,96.92h-11.07c0.68-3.82,1.13-7.81,1.33-11.93h12.45C159,89.14,158.07,93.14,156.69,96.92z M115,128.78v-21.85h17.61
		C128.61,118.02,122.27,126.17,115,128.78z M115,96.92V84.99h21.95c-0.24,4.13-0.76,8.13-1.54,11.93H115z M159.41,75h-12.45
		c-0.2-4.12-0.66-8.11-1.33-11.93h11.07C158.07,66.85,159,70.85,159.41,75z M136.94,75h-21.95V63.07h20.41
		C136.18,66.87,136.71,70.87,136.94,75z M115,53.07V31.22c7.27,2.6,13.61,10.75,17.61,21.85H115z M105,31.22v21.85H87.38
		C91.38,41.97,97.72,33.82,105,31.22z M105,63.07V75H83.05c0.24-4.13,0.76-8.13,1.54-11.93H105z M60.58,85h12.46
		c0.2,4.12,0.65,8.11,1.33,11.93H63.3C61.93,93.14,61,89.14,60.58,85z M83.05,85H105v11.93H84.59C83.81,93.13,83.29,89.13,83.05,85z
		 M105,106.92v21.85c-7.27-2.61-13.62-10.76-17.62-21.85H105z M136.64,121.88c2.65-4.37,4.88-9.4,6.59-14.96h8.47
		C147.81,112.92,142.67,118.03,136.64,121.88z M151.7,53.07h-8.47c-1.71-5.55-3.93-10.59-6.59-14.96
		C142.67,41.96,147.81,47.07,151.7,53.07z M83.36,38.11c-2.65,4.37-4.88,9.4-6.59,14.96h-8.48C72.18,47.07,77.33,41.96,83.36,38.11z
		 M68.29,106.92h8.48c1.71,5.55,3.93,10.59,6.59,14.96C77.33,118.03,72.18,112.92,68.29,106.92z"/>
</g>
</svg>
